<?xml version="1.0" standalone="no"?>
<!DOCTYPE svg PUBLIC "-//W3C//DTD SVG 20010904//EN"
 "http://www.w3.org/TR/2001/REC-SVG-20010904/DTD/svg10.dtd">
<svg version="1.0" xmlns="http://www.w3.org/2000/svg"
 width="477.000000pt" height="333.000000pt" viewBox="0 0 477.000000 333.000000"
 preserveAspectRatio="xMidYMid meet">
<metadata>
Created by potrace 1.14, written by Peter Selinger 2001-2017
</metadata>
<g transform="translate(0.000000,333.000000) scale(0.100000,-0.100000)"
fill="#000000" stroke="none">
<path d="M3305 3258 c-17 -38 -191 -484 -270 -693 -117 -309 -177 -460 -185
-469 -5 -5 -54 -4 -117 4 -59 6 -191 14 -293 17 -174 4 -185 6 -183 23 2 10
58 160 126 332 68 172 122 316 120 321 -2 4 -368 7 -813 7 -625 0 -811 -3
-817 -12 -17 -25 -111 -273 -106 -280 2 -5 80 -8 173 -8 93 0 171 -3 174 -8 4
-7 -532 -1409 -552 -1442 -7 -12 -44 -16 -197 -20 l-188 -5 -54 -139 c-32 -81
-51 -142 -46 -147 5 -5 182 -8 408 -7 l398 3 44 115 c266 695 628 1628 636
1638 7 9 58 12 193 12 100 0 185 -3 187 -7 3 -5 -32 -105 -78 -223 l-82 -215
-120 -40 c-228 -77 -331 -169 -308 -277 10 -42 86 -115 163 -156 34 -18 62
-37 62 -42 0 -4 -45 -124 -100 -266 -55 -143 -138 -358 -185 -479 -46 -121
-124 -323 -173 -450 -49 -126 -88 -233 -85 -237 2 -5 98 -8 212 -8 155 0 211
3 218 13 6 6 65 156 132 332 276 722 375 977 385 991 9 12 24 12 91 3 44 -6
176 -12 293 -14 118 -2 216 -6 218 -8 3 -2 -23 -76 -57 -163 -122 -316 -189
-508 -181 -516 4 -4 372 -7 816 -6 l808 3 49 139 c27 76 46 142 43 147 -3 5
-86 9 -185 9 -137 0 -179 3 -179 13 0 6 125 336 279 732 l278 720 165 3 c116
2 169 6 176 15 18 24 94 256 89 272 -6 13 -66 15 -511 15 -393 0 -507 -3 -513
-12 -17 -27 -102 -271 -97 -279 3 -5 59 -9 125 -9 88 0 119 -3 119 -12 0 -7
-125 -337 -278 -733 l-278 -720 -182 -3 c-111 -1 -182 1 -182 7 0 23 164 437
179 452 9 9 53 29 97 43 134 44 236 114 270 184 34 73 -4 145 -117 218 l-68
44 13 38 c8 20 53 138 101 262 48 124 111 288 140 365 30 77 96 250 149 384
52 134 93 248 90 253 -3 4 -99 8 -215 8 l-209 0 -15 -32z m-638 -1249 c70 -6
132 -14 136 -18 9 -9 -149 -428 -170 -451 -11 -13 -53 -15 -251 -15 -250 1
-352 9 -352 28 0 23 171 451 183 459 18 11 307 10 454 -3z m-937 -78 c0 -15
-101 -275 -112 -288 -24 -30 -168 79 -168 127 0 27 56 87 104 112 85 44 176
69 176 49z m1529 -55 c37 -20 91 -82 91 -106 0 -29 -57 -88 -109 -114 -54 -27
-120 -50 -127 -43 -5 5 85 246 99 265 12 15 12 15 46 -2z"/>
</g>
</svg>
