<svg id="svg" version="1.1" width="400" height="263" xmlns="http://www.w3.org/2000/svg" xmlns:xlink="http://www.w3.org/1999/xlink" style="display: block;"><g id="svgg"><path id="path0" d="M271.991 8.750 C 271.351 10.813,270.191 13.918,269.414 15.651 C 268.636 17.384,268.000 19.298,268.000 19.905 C 268.000 20.511,267.100 22.686,266.000 24.739 C 264.900 26.791,264.000 28.982,264.000 29.608 C 264.000 30.664,261.936 35.845,258.344 43.807 C 256.867 47.082,253.336 56.248,250.952 63.000 C 250.273 64.925,248.993 68.285,248.108 70.468 C 247.224 72.650,246.500 74.689,246.500 75.000 C 246.500 75.311,245.737 77.350,244.805 79.532 C 243.873 81.715,241.856 86.814,240.324 90.864 L 237.537 98.229 231.019 97.465 C 227.433 97.046,217.434 96.432,208.798 96.101 L 193.095 95.500 194.434 92.500 C 195.620 89.841,198.945 81.486,209.903 53.627 C 211.606 49.297,213.000 45.134,213.000 44.377 C 213.000 43.222,202.454 43.000,147.500 43.000 C 90.618 43.000,82.000 43.193,82.000 44.466 C 82.000 45.860,81.115 48.170,76.952 57.642 C 75.950 59.920,74.827 63.407,74.454 65.392 L 73.777 69.000 87.408 69.000 L 101.038 69.000 100.366 71.750 C 99.996 73.263,98.862 76.068,97.847 77.985 C 96.831 79.902,96.000 81.917,96.000 82.463 C 96.000 83.009,94.389 87.516,92.420 92.478 C 90.451 97.440,88.237 103.075,87.500 105.000 C 86.763 106.925,84.549 112.560,82.580 117.522 C 80.611 122.484,78.997 126.984,78.994 127.522 C 78.990 128.060,78.365 129.694,77.603 131.153 C 76.842 132.613,75.670 135.469,75.000 137.500 C 74.330 139.531,73.158 142.387,72.397 143.847 C 71.635 145.306,71.010 147.201,71.006 148.059 C 71.003 148.916,70.339 150.491,69.532 151.559 C 68.724 152.626,68.049 154.087,68.032 154.805 C 68.014 155.523,67.133 158.013,66.073 160.340 C 65.013 162.666,63.838 165.796,63.462 167.294 C 63.086 168.793,62.378 170.266,61.889 170.568 C 61.400 170.871,61.000 172.014,61.000 173.109 C 61.000 174.204,60.313 176.427,59.474 178.050 L 57.949 181.000 43.521 181.000 L 29.094 181.000 27.609 184.250 C 23.979 192.199,21.129 199.793,20.481 203.251 L 19.777 207.000 52.402 207.000 L 85.026 207.000 86.907 202.750 C 90.191 195.329,96.070 180.459,99.262 171.500 C 99.850 169.850,101.157 166.592,102.166 164.261 C 103.175 161.929,104.000 159.618,104.000 159.125 C 104.000 158.632,104.672 156.940,105.494 155.364 C 106.315 153.789,107.005 151.825,107.026 151.000 C 107.047 150.175,107.724 148.626,108.532 147.559 C 109.339 146.491,110.015 144.916,110.034 144.059 C 110.053 143.201,110.937 140.700,112.000 138.500 C 113.063 136.300,113.947 133.950,113.966 133.277 C 113.985 132.604,114.872 130.129,115.937 127.777 C 117.693 123.901,119.393 119.605,127.324 99.000 C 133.527 82.883,136.952 74.199,138.090 71.701 L 139.321 69.000 152.661 69.000 C 164.808 69.000,167.999 69.647,165.000 71.500 C 164.450 71.840,164.000 73.190,164.000 74.500 C 164.000 75.810,163.585 77.139,163.077 77.452 C 162.569 77.766,161.834 79.480,161.443 81.261 C 161.051 83.042,159.837 86.524,158.744 89.000 C 157.651 91.475,155.923 95.401,154.904 97.725 C 153.526 100.865,152.338 102.097,150.275 102.526 C 119.401 108.944,109.823 129.988,132.925 140.644 C 138.063 143.014,137.943 143.995,130.354 161.651 C 129.609 163.384,128.985 165.184,128.966 165.651 C 128.947 166.118,128.063 168.300,127.000 170.500 C 125.937 172.700,125.056 174.950,125.042 175.500 C 125.028 176.050,123.477 180.100,121.595 184.500 C 119.714 188.900,117.276 194.975,116.178 198.000 C 113.945 204.148,109.828 214.935,106.826 222.500 C 105.734 225.250,104.380 229.075,103.817 231.000 C 103.253 232.925,102.444 234.950,102.018 235.500 C 101.593 236.050,100.911 237.625,100.503 239.000 C 100.095 240.375,98.904 243.413,97.856 245.750 C 96.808 248.088,95.680 251.350,95.350 253.000 L 94.750 256.000 113.375 256.000 C 127.906 256.000,132.000 255.717,132.000 254.711 C 132.000 254.003,132.900 251.658,134.000 249.500 C 135.100 247.342,136.000 244.799,136.000 243.848 C 136.000 242.896,136.400 241.871,136.889 241.568 C 137.378 241.266,138.086 239.793,138.462 238.294 C 138.838 236.796,140.013 233.666,141.073 231.340 C 142.133 229.013,143.000 226.731,143.000 226.267 C 143.000 225.804,144.575 221.634,146.500 217.000 C 148.425 212.366,150.015 208.108,150.034 207.538 C 150.053 206.967,150.937 204.700,152.000 202.500 C 153.063 200.300,153.947 197.894,153.966 197.154 C 153.985 196.414,154.620 194.614,155.378 193.154 C 156.135 191.694,157.747 187.800,158.959 184.500 C 161.872 176.571,163.822 171.468,166.030 166.000 C 167.029 163.525,168.628 159.473,169.583 156.996 L 171.321 152.492 193.410 152.850 C 219.287 153.269,216.427 152.402,213.907 159.065 C 212.776 162.054,211.489 165.625,211.049 167.000 C 210.608 168.375,209.467 171.300,208.513 173.500 C 205.895 179.537,204.441 183.136,203.059 187.000 C 202.370 188.925,200.735 193.425,199.425 197.000 C 198.114 200.575,197.033 204.291,197.021 205.257 C 197.001 206.918,200.561 207.000,262.115 206.757 L 327.230 206.500 330.729 196.500 C 332.653 191.000,334.453 185.262,334.728 183.750 L 335.227 181.000 321.113 181.000 C 304.769 181.000,305.581 181.841,310.500 170.000 C 312.425 165.366,314.000 161.196,314.000 160.733 C 314.000 160.269,314.867 157.987,315.927 155.660 C 316.987 153.334,318.162 150.204,318.538 148.706 C 318.914 147.207,319.622 145.734,320.111 145.432 C 320.600 145.129,321.000 144.229,321.000 143.430 C 321.000 142.632,321.845 140.071,322.877 137.739 C 325.030 132.877,328.173 124.305,328.085 123.535 C 328.053 123.249,328.920 121.423,330.013 119.477 C 331.106 117.531,332.000 115.290,332.000 114.496 C 332.000 113.703,332.857 111.129,333.904 108.777 C 334.952 106.425,336.575 102.475,337.511 100.000 C 338.447 97.525,340.017 93.475,341.000 91.000 C 341.983 88.525,343.553 84.475,344.489 82.000 C 345.425 79.525,347.042 75.588,348.083 73.250 L 349.974 69.000 362.880 69.000 C 374.234 69.000,375.871 68.790,376.497 67.250 C 379.569 59.687,383.000 48.475,383.000 46.002 L 383.000 43.000 341.750 43.013 L 300.500 43.027 298.740 48.263 C 297.772 51.144,296.781 54.311,296.538 55.302 C 296.294 56.293,295.399 58.499,294.547 60.205 C 293.696 61.911,293.000 64.588,293.000 66.154 L 293.000 69.000 302.430 69.000 L 311.860 69.000 311.054 71.750 C 310.610 73.263,309.554 76.075,308.707 78.000 C 304.717 87.068,304.000 88.876,304.000 89.874 C 304.000 90.464,303.128 92.871,302.063 95.223 C 299.387 101.131,293.000 117.382,293.000 118.283 C 293.000 118.689,292.143 120.929,291.095 123.261 C 290.048 125.592,288.412 129.750,287.460 132.500 C 286.508 135.250,284.890 139.330,283.865 141.566 C 282.839 143.802,282.000 146.363,282.000 147.257 C 282.000 148.151,281.600 149.129,281.111 149.432 C 280.622 149.734,279.914 151.207,279.538 152.706 C 279.162 154.204,277.987 157.334,276.927 159.660 C 275.867 161.987,275.000 164.214,275.000 164.610 C 275.000 165.006,273.593 168.856,271.873 173.165 L 268.747 181.000 255.873 181.000 C 244.253 181.000,241.026 180.338,243.923 178.548 C 244.431 178.234,245.166 176.520,245.557 174.739 C 245.949 172.958,247.085 169.701,248.083 167.500 C 249.080 165.300,251.196 160.125,252.783 156.000 C 255.892 147.925,256.052 147.783,266.500 143.836 C 289.013 135.332,293.115 117.342,274.331 109.494 C 271.069 108.131,270.750 106.660,273.033 103.500 C 273.430 102.950,274.071 101.375,274.458 100.000 C 274.844 98.625,276.699 93.563,278.580 88.750 C 280.461 83.937,283.539 76.062,285.420 71.250 C 287.301 66.438,289.156 61.375,289.542 60.000 C 289.929 58.625,290.564 57.050,290.954 56.500 C 291.343 55.950,292.930 51.900,294.481 47.500 C 296.031 43.100,297.597 39.050,297.961 38.500 C 298.325 37.950,299.894 34.125,301.447 30.000 C 303.000 25.875,304.850 21.150,305.558 19.500 C 306.266 17.850,307.155 15.258,307.534 13.741 C 307.912 12.223,308.622 10.734,309.111 10.432 C 309.600 10.129,310.000 8.784,310.000 7.441 L 310.000 5.000 291.578 5.000 L 273.155 5.000 271.991 8.750 M227.000 107.849 C 233.114 108.573,233.673 109.939,230.478 116.345 C 229.665 117.974,229.000 119.693,229.000 120.165 C 229.000 120.636,228.155 122.929,227.123 125.261 C 224.666 130.809,221.576 139.235,221.533 140.500 C 221.493 141.708,205.482 143.131,198.500 142.547 C 195.750 142.317,189.328 142.100,184.230 142.065 L 174.959 142.000 177.128 137.750 C 178.320 135.412,179.212 133.275,179.109 133.000 C 179.006 132.725,179.584 130.925,180.394 129.000 C 181.204 127.075,183.070 122.379,184.540 118.564 C 189.538 105.593,187.003 106.986,205.411 107.099 C 214.260 107.153,223.975 107.491,227.000 107.849 M146.321 120.250 C 144.930 123.688,143.471 127.850,143.079 129.500 C 142.158 133.384,137.985 133.318,133.847 129.354 C 128.942 124.654,130.812 121.023,140.500 116.437 C 148.712 112.549,149.286 112.926,146.321 120.250 M272.040 120.188 C 277.758 124.416,275.933 128.208,265.708 133.345 C 260.913 135.755,260.761 135.543,262.948 129.489 C 267.568 116.706,267.469 116.808,272.040 120.188 " stroke="none" fill="#000000" fill-rule="evenodd"></path></g></svg>